<svg width="40" height="40" viewBox="0 0 40 40" fill="none" xmlns="http://www.w3.org/2000/svg">
<g clip-path="url(#clip0_35_105)">
<mask id="mask0_35_105" style="mask-type:luminance" maskUnits="userSpaceOnUse" x="0" y="0" width="40" height="40">
<path d="M40 0H0V40H40V0Z" fill="white"/>
</mask>
<g mask="url(#mask0_35_105)">
<path d="M40 20C40 8.9543 31.0457 0 20 0C8.9543 0 0 8.9543 0 20C0 31.0457 8.9543 40 20 40C31.0457 40 40 31.0457 40 20Z" fill="#CECED7"/>
<path d="M17.9331 28.9945C18.5811 30.2347 20.4806 31.285 22.4973 31.285C28.5029 31.285 32.8269 25.7599 32.8269 18.8995C32.8269 12.3241 27.4582 7.40234 20.5532 7.40234C11.961 7.40234 7.40234 13.1677 7.40234 19.4526C7.40234 22.3744 8.95542 26.0057 11.4415 27.1621C11.8213 27.3409 12.0225 27.2627 12.1063 26.8995C12.1733 26.6202 12.5085 25.2739 12.6593 24.6426C12.7152 24.4415 12.6649 24.2236 12.5197 24.0727C11.6984 23.0727 11.0392 21.2403 11.0392 19.5308C11.0392 15.1398 14.3632 10.8884 20.028 10.8884C24.9219 10.8884 28.3465 14.218 28.3465 18.9889C28.3465 24.3744 25.6258 28.1063 22.0839 28.1063C20.1286 28.1063 18.6649 26.4917 19.1342 24.5085C19.6984 22.1398 20.7822 19.5867 20.7822 17.8772C20.7822 16.3465 19.961 15.0727 18.2627 15.0727C16.2627 15.0727 14.6593 17.1398 14.6593 19.9051C14.6593 21.6705 15.2571 22.8604 15.2571 22.8604C15.2571 22.8604 13.285 31.2012 12.9219 32.7543C12.5085 34.542 12.6984 37.1063 12.8772 38.6705C13.285 38.8269 13.6873 38.9833 14.1063 39.1118C14.9163 37.8102 16.2236 35.5197 16.6873 33.7208C16.9331 32.799 17.9331 28.9945 17.9331 28.9945Z" fill="#343436"/>
</g>
</g>
<defs>
<clipPath id="clip0_35_105">
<rect width="40" height="40" fill="white"/>
</clipPath>
</defs>
</svg>
