<svg width="44" height="40" viewBox="0 0 44 40" fill="none" xmlns="http://www.w3.org/2000/svg">
<g clip-path="url(#clip0_35_93)" filter="url(#filter0_d_35_93)">
<mask id="mask0_35_93" style="mask-type:luminance" maskUnits="userSpaceOnUse" x="0" y="0" width="40" height="40">
<path d="M40 0H0V40H40V0Z" fill="white"/>
</mask>
<g mask="url(#mask0_35_93)">
<path d="M39.7777 19.9999C39.7777 30.9222 30.9222 39.7777 19.9999 39.7777C9.07767 39.7777 0.222168 30.9222 0.222168 19.9999C0.222168 9.07767 9.07767 0.222168 19.9999 0.222168C30.9222 0.222168 39.7777 9.07767 39.7777 19.9999Z" fill="#CECED7"/>
<path opacity="0.05" d="M6.27324 19.472C14.3376 15.818 23.8092 11.8536 25.2678 11.28C28.4837 10.0152 29.8859 11.3077 29.6664 13.3695C29.3964 15.8961 28.1168 23.2485 27.3296 28.5163C26.8688 31.5987 25.1996 32.5431 23.3157 31.3475C21.8868 30.4407 16.974 27.2239 15.6815 26.1242C14.8004 25.3746 14.1863 24.5341 14.8113 23.6777C14.9942 23.4275 15.462 22.9232 15.7221 22.672C17.0264 21.4082 16.8504 21.1363 15.2731 22.2646C15.0852 22.3991 13.9955 23.1892 13.5475 23.4878C12.4498 24.2196 11.4402 24.2592 9.72841 23.6777C8.32815 23.2021 6.98326 22.8352 6.13479 22.4683C4.96296 21.961 4.514 20.269 6.27324 19.472Z" fill="#343436"/>
<path opacity="0.07" d="M6.98215 19.5955C14.47 16.2481 23.6786 12.4122 25.0254 11.8693C28.2532 10.5659 29.4408 11.3392 29.0937 13.8579C28.7714 16.1897 27.6272 23.4047 26.8252 28.2413C26.3525 31.0883 24.972 31.7153 23.1742 30.5523C22.0479 29.8265 17.5148 26.8401 16.4152 25.9708C15.5647 25.2994 14.6836 24.5241 15.7131 23.4017C16.0572 23.0269 17.9578 21.1925 19.3789 19.8278C20.2026 19.0357 19.9089 18.6451 18.9151 19.3255C17.0926 20.5745 14.1111 22.5512 13.579 22.9102C12.5654 23.5925 11.6131 23.7567 9.95574 23.2356C8.64942 22.8242 7.3876 22.4257 6.72998 22.1695C5.26049 21.5999 5.24072 20.3737 6.98215 19.5955Z" fill="#343436"/>
<path d="M7.69164 19.7202C14.604 16.6794 23.5485 12.972 24.7836 12.4588C28.0222 11.1159 29.0161 11.373 28.5206 14.3476C28.1646 16.4856 27.1382 23.563 26.3194 27.9685C25.8338 30.5812 24.7441 30.8907 23.0313 29.7604C22.2076 29.2165 18.0493 26.4664 17.1464 25.8207C16.3227 25.2323 15.1865 24.5242 16.6115 23.1299C17.1188 22.6335 20.4424 19.4591 23.0323 16.9889C23.3715 16.6645 22.9453 16.1315 22.5537 16.3916C19.0629 18.7066 14.2233 21.9195 13.6072 22.3378C12.6767 22.9697 11.7827 23.2594 10.1787 22.7986C8.96632 22.4505 7.78262 22.0352 7.3218 21.877C5.54674 21.2678 5.96801 20.4787 7.69164 19.7202Z" fill="#343436"/>
</g>
</g>
<defs>
<filter id="filter0_d_35_93" x="-4" y="0" width="48" height="48" filterUnits="userSpaceOnUse" color-interpolation-filters="sRGB">
<feFlood flood-opacity="0" result="BackgroundImageFix"/>
<feColorMatrix in="SourceAlpha" type="matrix" values="0 0 0 0 0 0 0 0 0 0 0 0 0 0 0 0 0 0 127 0" result="hardAlpha"/>
<feOffset dy="4"/>
<feGaussianBlur stdDeviation="2"/>
<feComposite in2="hardAlpha" operator="out"/>
<feColorMatrix type="matrix" values="0 0 0 0 0 0 0 0 0 0 0 0 0 0 0 0 0 0 0.25 0"/>
<feBlend mode="normal" in2="BackgroundImageFix" result="effect1_dropShadow_35_93"/>
<feBlend mode="normal" in="SourceGraphic" in2="effect1_dropShadow_35_93" result="shape"/>
</filter>
<clipPath id="clip0_35_93">
<rect width="40" height="40" fill="white"/>
</clipPath>
</defs>
</svg>
