<svg width="40" height="40" viewBox="0 0 40 40" fill="none" xmlns="http://www.w3.org/2000/svg">
<g clip-path="url(#clip0_35_102)">
<path d="M40 20C40 8.9543 31.0457 0 20 0C8.9543 0 0 8.9543 0 20C0 31.0457 8.9543 40 20 40C31.0457 40 40 31.0457 40 20Z" fill="#CECED7"/>
<path d="M20.8931 26.4285C14.0599 26.4285 10.1624 21.8704 10 14.2856H13.4229C13.5353 19.8526 16.0587 22.2107 18.0574 22.6969V14.2856H21.2805V19.0869C23.2543 18.8802 25.3277 16.6923 26.0273 14.2856H29.2503C28.7132 17.2515 26.4646 19.4394 24.8656 20.3388C26.4646 21.0681 29.0256 22.9765 30 26.4285H26.4521C25.6901 24.1191 23.7914 22.3323 21.2805 22.0892V26.4285H20.8931Z" fill="#343436"/>
</g>
<defs>
<clipPath id="clip0_35_102">
<rect width="40" height="40" fill="white"/>
</clipPath>
</defs>
</svg>
